<svg width="94" height="81" viewBox="0 0 94 81" fill="none" xmlns="http://www.w3.org/2000/svg">
<mask id="path-1-outside-1_3298_11994" maskUnits="userSpaceOnUse" x="-0.646976" y="0.353023" width="94" height="80" fill="black">
<rect fill="white" x="-0.646976" y="0.353023" width="94" height="80"/>
<path fill-rule="evenodd" clip-rule="evenodd" d="M73.0042 19.3749C73.971 15.8589 77.1984 13.2754 81.0308 13.2754C85.6271 13.2754 89.353 16.9913 89.353 21.5751C89.353 24.3339 88.0033 26.7784 85.9265 28.2875C88.0927 31.5726 89.353 35.5048 89.353 39.7305C89.353 43.8372 88.1627 47.6667 86.1073 50.8944C88.0813 52.412 89.353 54.7938 89.353 57.4717C89.353 62.0555 85.6271 65.7714 81.0308 65.7714C77.3407 65.7714 74.2116 63.3762 73.1212 60.0597C72.0525 60.3033 70.9525 60.4652 69.8284 60.5385C68.5475 62.4248 67.087 64.1902 65.4639 65.8089C62.1119 69.1518 58.1326 71.8035 53.753 73.6127C49.3735 75.4219 44.6795 76.353 39.9391 76.353C35.1987 76.353 30.5047 75.4218 26.1252 73.6127C21.7456 71.8035 17.7663 69.1518 14.4143 65.8089C11.0623 62.466 8.40342 58.4973 6.58935 54.1296C5.75309 52.1162 5.10392 50.0361 4.64705 47.9156L7.18147 46.4563C6.29858 44.5551 5.80589 42.437 5.80589 40.204C5.80589 38.0631 6.25882 36.0277 7.07433 34.1879L4.64752 32.7906C5.10438 30.67 5.75356 28.5899 6.58984 26.5764C8.40391 22.2087 11.0628 18.2401 14.4148 14.8972C17.7668 11.5543 21.7461 8.90253 26.1257 7.09336C30.5052 5.28419 35.1992 4.35302 39.9396 4.35303C44.68 4.35303 49.374 5.28419 53.7535 7.09336C58.1331 8.90253 62.1124 11.5543 65.4644 14.8972C66.7133 16.1427 67.866 17.4751 68.9146 18.8826C70.3162 18.9135 71.6837 19.082 73.0042 19.3749ZM35.6741 40.353L39.9391 40.353L47.5431 40.353L39.9396 40.353L35.6741 40.353Z"/>
</mask>
<path fill-rule="evenodd" clip-rule="evenodd" d="M73.0042 19.3749C73.971 15.8589 77.1984 13.2754 81.0308 13.2754C85.6271 13.2754 89.353 16.9913 89.353 21.5751C89.353 24.3339 88.0033 26.7784 85.9265 28.2875C88.0927 31.5726 89.353 35.5048 89.353 39.7305C89.353 43.8372 88.1627 47.6667 86.1073 50.8944C88.0813 52.412 89.353 54.7938 89.353 57.4717C89.353 62.0555 85.6271 65.7714 81.0308 65.7714C77.3407 65.7714 74.2116 63.3762 73.1212 60.0597C72.0525 60.3033 70.9525 60.4652 69.8284 60.5385C68.5475 62.4248 67.087 64.1902 65.4639 65.8089C62.1119 69.1518 58.1326 71.8035 53.753 73.6127C49.3735 75.4219 44.6795 76.353 39.9391 76.353C35.1987 76.353 30.5047 75.4218 26.1252 73.6127C21.7456 71.8035 17.7663 69.1518 14.4143 65.8089C11.0623 62.466 8.40342 58.4973 6.58935 54.1296C5.75309 52.1162 5.10392 50.0361 4.64705 47.9156L7.18147 46.4563C6.29858 44.5551 5.80589 42.437 5.80589 40.204C5.80589 38.0631 6.25882 36.0277 7.07433 34.1879L4.64752 32.7906C5.10438 30.67 5.75356 28.5899 6.58984 26.5764C8.40391 22.2087 11.0628 18.2401 14.4148 14.8972C17.7668 11.5543 21.7461 8.90253 26.1257 7.09336C30.5052 5.28419 35.1992 4.35302 39.9396 4.35303C44.68 4.35303 49.374 5.28419 53.7535 7.09336C58.1331 8.90253 62.1124 11.5543 65.4644 14.8972C66.7133 16.1427 67.866 17.4751 68.9146 18.8826C70.3162 18.9135 71.6837 19.082 73.0042 19.3749ZM35.6741 40.353L39.9391 40.353L47.5431 40.353L39.9396 40.353L35.6741 40.353Z" fill="#056A81"/>
<path d="M73.0042 19.3749L72.1378 23.28L75.8523 24.1041L76.8611 20.4354L73.0042 19.3749ZM85.9265 28.2875L83.5751 25.0516L80.483 27.2985L82.5871 30.4895L85.9265 28.2875ZM86.1073 50.8944L82.7333 48.7459L80.7668 51.8341L83.6693 54.0656L86.1073 50.8944ZM73.1212 60.0597L76.9211 58.8104L75.7835 55.3503L72.2323 56.1597L73.1212 60.0597ZM69.8284 60.5385L69.5681 56.547L67.6173 56.6742L66.5191 58.2915L69.8284 60.5385ZM65.4639 65.8089L68.2885 68.6411L65.4639 65.8089ZM53.753 73.6127L52.2258 69.9157L52.2258 69.9157L53.753 73.6127ZM26.1252 73.6127L27.6524 69.9157L27.6524 69.9157L26.1252 73.6127ZM14.4143 65.8089L11.5897 68.6411L14.4143 65.8089ZM6.58935 54.1296L2.89529 55.6639L6.58935 54.1296ZM4.64705 47.9156L2.65111 44.4491L0.12216 45.9053L0.736776 48.758L4.64705 47.9156ZM7.18147 46.4563L9.17741 49.9227L12.3525 48.0945L10.8094 44.7715L7.18147 46.4563ZM7.07433 34.1879L10.7312 35.8089L12.19 32.5178L9.07028 30.7215L7.07433 34.1879ZM4.64752 32.7906L0.737242 31.9482L0.122634 34.8009L2.65157 36.257L4.64752 32.7906ZM6.58984 26.5764L10.2839 28.1107L10.2839 28.1107L6.58984 26.5764ZM14.4148 14.8972L17.2394 17.7294L17.2394 17.7294L14.4148 14.8972ZM26.1257 7.09336L24.5985 3.39638L24.5985 3.39638L26.1257 7.09336ZM53.7535 7.09336L52.2263 10.7903L53.7535 7.09336ZM65.4644 14.8972L68.289 12.0649L68.289 12.0649L65.4644 14.8972ZM68.9146 18.8826L65.707 21.2724L66.8738 22.8386L68.8264 22.8817L68.9146 18.8826ZM39.9391 40.353L39.9391 44.353L39.9391 44.353L39.9391 40.353ZM81.0308 9.27539C75.3581 9.27539 70.581 13.1006 69.1474 18.3144L76.8611 20.4354C77.361 18.6173 79.0387 17.2754 81.0308 17.2754L81.0308 9.27539ZM93.353 21.5751C93.353 14.772 87.826 9.27539 81.0308 9.27539L81.0308 17.2754C83.4281 17.2754 85.353 19.2106 85.353 21.5751L93.353 21.5751ZM88.2779 31.5234C91.3436 29.2957 93.353 25.671 93.353 21.5751L85.353 21.5751C85.353 22.9968 84.663 24.2611 83.5751 25.0516L88.2779 31.5234ZM93.353 39.7305C93.353 34.6976 91.8494 30.0035 89.2659 26.0855L82.5871 30.4895C84.336 33.1417 85.353 36.3119 85.353 39.7305L93.353 39.7305ZM89.4813 53.0429C91.933 49.1927 93.353 44.6212 93.353 39.7305L85.353 39.7305C85.353 43.0532 84.3923 46.1406 82.7333 48.7459L89.4813 53.0429ZM93.353 57.4717C93.353 53.4965 91.4597 49.9638 88.5453 47.7233L83.6693 54.0656C84.7029 54.8602 85.353 56.091 85.353 57.4717L93.353 57.4717ZM81.0308 69.7714C87.826 69.7714 93.353 64.2748 93.353 57.4717L85.353 57.4717C85.353 59.8362 83.4281 61.7714 81.0308 61.7714L81.0308 69.7714ZM69.3213 61.309C70.9371 66.2237 75.568 69.7714 81.0308 69.7714L81.0308 61.7714C79.1135 61.7714 77.486 60.5287 76.9211 58.8104L69.3213 61.309ZM70.0886 64.53C71.4257 64.4428 72.7358 64.2501 74.01 63.9597L72.2323 56.1597C71.3692 56.3564 70.4794 56.4875 69.5681 56.547L70.0886 64.53ZM68.2885 68.6411C70.0916 66.8428 71.7144 64.8814 73.1376 62.7855L66.5191 58.2915C65.3806 59.9682 64.0823 61.5376 62.6393 62.9766L68.2885 68.6411ZM55.2802 77.3097C60.1443 75.3003 64.5646 72.3549 68.2885 68.6411L62.6393 62.9766C59.6593 65.9486 56.1209 68.3067 52.2258 69.9157L55.2802 77.3097ZM39.9391 80.353C45.2033 80.353 50.4162 79.319 55.2802 77.3097L52.2258 69.9157C48.3308 71.5247 44.1557 72.353 39.9391 72.353L39.9391 80.353ZM24.598 77.3097C29.462 79.319 34.6749 80.353 39.9391 80.353L39.9391 72.353C35.7225 72.353 31.5474 71.5247 27.6524 69.9157L24.598 77.3097ZM11.5897 68.6411C15.3136 72.3549 19.7339 75.3003 24.598 77.3097L27.6524 69.9157C23.7574 68.3067 20.2189 65.9486 17.2389 62.9766L11.5897 68.6411ZM2.89529 55.6639C4.91125 60.5177 7.86579 64.9273 11.5897 68.6411L17.2389 62.9766C14.2589 60.0046 11.8956 56.477 10.2834 52.5954L2.89529 55.6639ZM0.736776 48.758C1.24452 51.1147 1.96598 53.4264 2.89529 55.6639L10.2834 52.5954C9.5402 50.806 8.96332 48.9575 8.55733 47.0731L0.736776 48.758ZM5.18553 42.9898L2.65111 44.4491L6.643 51.382L9.17741 49.9227L5.18553 42.9898ZM1.80589 40.204C1.80589 43.031 2.43071 45.7231 3.55359 48.141L10.8094 44.7715C10.1665 43.3871 9.80589 41.8429 9.80589 40.204L1.80589 40.204ZM3.41749 32.567C2.38016 34.9072 1.80589 37.4939 1.80589 40.204L9.80589 40.204C9.80589 38.6324 10.1375 37.1483 10.7312 35.8089L3.41749 32.567ZM2.65157 36.257L5.07838 37.6544L9.07028 30.7215L6.64347 29.3242L2.65157 36.257ZM2.89579 25.0421C1.96645 27.2797 1.24499 29.5914 0.737242 31.9482L8.5578 33.633C8.96378 31.7486 9.54067 29.9001 10.2839 28.1107L2.89579 25.0421ZM11.5902 12.0649C7.86628 15.7788 4.91174 20.1883 2.89578 25.0421L10.2839 28.1107C11.8961 24.229 14.2594 20.7014 17.2394 17.7294L11.5902 12.0649ZM24.5985 3.39638C19.7344 5.4057 15.3141 8.3511 11.5902 12.0649L17.2394 17.7294C20.2194 14.7574 23.7578 12.3994 27.6529 10.7903L24.5985 3.39638ZM39.9396 0.353025C34.6754 0.353025 29.4625 1.38707 24.5985 3.39638L27.6529 10.7903C31.5479 9.18132 35.723 8.35302 39.9396 8.35303L39.9396 0.353025ZM55.2807 3.39638C50.4167 1.38707 45.2038 0.353025 39.9396 0.353025L39.9396 8.35303C44.1562 8.35303 48.3313 9.18132 52.2263 10.7903L55.2807 3.39638ZM68.289 12.0649C64.5651 8.3511 60.1448 5.40571 55.2807 3.39638L52.2263 10.7903C56.1213 12.3994 59.6598 14.7574 62.6398 17.7294L68.289 12.0649ZM72.1223 16.4929C70.9572 14.929 69.6765 13.4487 68.289 12.0649L62.6398 17.7294C63.7501 18.8368 64.7748 20.0212 65.707 21.2724L72.1223 16.4929ZM73.8706 15.4699C72.296 15.1205 70.6678 14.9203 69.0028 14.8836L68.8264 22.8817C69.9645 22.9067 71.0714 23.0434 72.1378 23.28L73.8706 15.4699ZM39.9391 36.353L35.6741 36.353L35.6741 44.353L39.9391 44.353L39.9391 36.353ZM47.5431 36.353L39.9391 36.353L39.9391 44.353L47.5431 44.353L47.5431 36.353ZM39.9396 44.353L47.5431 44.353L47.5431 36.353L39.9396 36.353L39.9396 44.353ZM35.6741 44.353L39.9396 44.353L39.9396 36.353L35.6741 36.353L35.6741 44.353Z" fill="#FFE5B4" mask="url(#path-1-outside-1_3298_11994)"/>
<ellipse cx="20.7403" cy="40.2039" rx="14.8941" ry="14.9345" transform="rotate(90 20.7403 40.2039)" fill="#354774"/>
<path d="M81.0308 65.1326C76.7857 65.1326 73.3473 61.701 73.3473 57.4716C73.3473 53.2422 76.7857 49.8106 81.0308 49.8106C85.2759 49.8106 88.7143 53.2422 88.7143 57.4716C88.7143 61.701 85.2759 65.1326 81.0308 65.1326Z" fill="#F8F2E4" stroke="#18171D" stroke-width="1.27739"/>
<path d="M81.7969 58.2226C82.6882 57.3337 84.127 57.3138 85.0426 58.1777L88.1038 61.0658C88.1038 61.0658 87.2306 62.2872 86.573 62.9852C85.9497 63.6467 84.8493 64.5498 84.8493 64.5498L81.7969 61.5058C80.8878 60.5992 80.8878 59.1292 81.7969 58.2226V58.2226Z" fill="#1E1E1E"/>
<path d="M81.0308 13.914C76.7857 13.914 73.3473 17.3456 73.3473 21.575C73.3473 25.8045 76.7857 29.2361 81.0308 29.2361C85.2759 29.2361 88.7143 25.8045 88.7143 21.575C88.7143 17.3456 85.2759 13.914 81.0308 13.914Z" fill="#F8F2E4" stroke="#18171D" stroke-width="1.27739"/>
<path d="M81.7969 20.8235C82.6882 21.7124 84.127 21.7323 85.0426 20.8684L88.1038 17.9804C88.1038 17.9804 87.2306 16.7589 86.573 16.061C85.9497 15.3994 84.8493 14.4964 84.8493 14.4964L81.7969 17.5404C80.8878 18.447 80.8878 19.9169 81.7969 20.8235V20.8235Z" fill="#1E1E1E"/>
<ellipse cx="68.4435" cy="39.7305" rx="20.853" ry="20.9095" transform="rotate(90 68.4435 39.7305)" fill="#354774"/>
<path fill-rule="evenodd" clip-rule="evenodd" d="M73.2894 26.5764C75.1034 30.9441 76.0371 35.6254 76.0371 40.353L39.9396 40.353L17.7803 40.353L17.7809 40.3527L4.64752 32.7906C5.10438 30.67 5.75356 28.5899 6.58984 26.5764C8.40391 22.2087 11.0628 18.2401 14.4148 14.8972C17.7668 11.5543 21.7461 8.90253 26.1257 7.09336C30.5052 5.28419 35.1992 4.35303 39.9396 4.35303C44.68 4.35303 49.374 5.28419 53.7535 7.09336C58.1331 8.90253 62.1124 11.5543 65.4644 14.8972C68.8164 18.2401 71.4753 22.2087 73.2894 26.5764Z" fill="#3D8B97"/>
<path fill-rule="evenodd" clip-rule="evenodd" d="M17.7813 40.3531L4.6471 47.9156C5.10397 50.0361 5.75314 52.1162 6.58939 54.1297C8.40346 58.4974 11.0624 62.466 14.4144 65.8089C17.7663 69.1518 21.7457 71.8035 26.1252 73.6127C30.5048 75.4219 35.1988 76.353 39.9391 76.353C44.6795 76.353 49.3735 75.4219 53.7531 73.6127C58.1326 71.8035 62.112 69.1518 65.4639 65.8089C68.8159 62.466 71.4748 58.4974 73.2889 54.1297C75.103 49.7619 76.0367 45.0806 76.0367 40.3531L39.9391 40.3531L17.7813 40.3531Z" fill="#056A81"/>
<path d="M63.085 40.3293C63.0851 40.3704 63.0852 40.4115 63.0852 40.4525C63.0852 50.5822 58.7584 59.6743 51.8988 65.8865C60.8086 61.0523 66.8804 51.4415 66.8804 40.3746C66.8804 40.3595 66.8804 40.3444 66.8804 40.3293L63.085 40.3293Z" fill="#F5C58A"/>
<path d="M47.9662 40.3293C47.9663 40.3609 47.9663 40.3925 47.9663 40.4241C47.9663 48.2162 44.6074 55.2101 39.2822 59.9887C46.199 56.27 50.9126 48.8771 50.9126 40.3642C50.9126 40.3526 50.9126 40.341 50.9126 40.3293L47.9662 40.3293Z" fill="#F5C58A"/>
<path d="M32.1132 40.1326C32.1132 40.1528 32.1133 40.173 32.1133 40.1932C32.1133 45.1801 30.0068 49.6562 26.6673 52.7145C31.0049 50.3346 33.9609 45.6032 33.9609 40.1549C33.9609 40.1474 33.9609 40.14 33.9609 40.1326L32.1132 40.1326Z" fill="#F5C58A"/>
<path d="M63.085 40.3293C63.0851 40.2899 63.0852 40.2504 63.0852 40.2109C63.0852 30.4708 58.7584 21.7285 51.8988 15.7552C60.8086 20.4035 66.8804 29.6446 66.8804 40.2858C66.8804 40.3003 66.8804 40.3148 66.8804 40.3293L63.085 40.3293Z" fill="#F1AE5B"/>
<path d="M47.9662 40.3293C47.9663 40.2984 47.9663 40.2674 47.9663 40.2365C47.9663 32.6003 44.6074 25.7463 39.2822 21.0632C46.199 24.7075 50.9126 31.9525 50.9126 40.2952C50.9126 40.3066 50.9126 40.318 50.9126 40.3293L47.9662 40.3293Z" fill="#F1AE5B"/>
<path d="M32.1132 40.1326C32.1132 40.1133 32.1133 40.094 32.1133 40.0748C32.1133 35.3216 30.0068 31.0553 26.6673 28.1404C31.0049 30.4087 33.9609 34.9184 33.9609 40.1113C33.9609 40.1184 33.9609 40.1255 33.9609 40.1326L32.1132 40.1326Z" fill="#F1AE5B"/>
<rect x="37.7056" y="57.2368" width="15.7275" height="15.7701" rx="7.86373" transform="rotate(90 37.7056 57.2368)" fill="#E06351"/>
<rect x="37.7056" y="7.49878" width="15.7275" height="15.7701" rx="7.86373" transform="rotate(90 37.7056 7.49878)" fill="#F1AE5B"/>
</svg>
