<svg width="94" height="81" viewBox="0 0 94 81" fill="none" xmlns="http://www.w3.org/2000/svg">
<mask id="path-1-outside-1_3298_11993" maskUnits="userSpaceOnUse" x="-0.646976" y="0.352962" width="94" height="80" fill="black">
<rect fill="white" x="-0.646976" y="0.352962" width="94" height="80"/>
<path fill-rule="evenodd" clip-rule="evenodd" d="M73.0042 19.3749C73.971 15.8589 77.1984 13.2753 81.0308 13.2753C85.6271 13.2753 89.353 16.9912 89.353 21.575C89.353 24.3339 88.0033 26.7783 85.9265 28.2875C88.0927 31.5726 89.353 35.5047 89.353 39.7304C89.353 43.8371 88.1627 47.6666 86.1073 50.8944C88.0813 52.412 89.353 54.7937 89.353 57.4716C89.353 62.0555 85.6271 65.7714 81.0308 65.7714C77.3407 65.7714 74.2116 63.3762 73.1212 60.0596C72.0525 60.3032 70.9525 60.4651 69.8284 60.5384C68.5475 62.4248 67.087 64.1901 65.4639 65.8088C62.1119 69.1517 58.1326 71.8035 53.753 73.6126C49.3735 75.4218 44.6795 76.353 39.9391 76.353C35.1987 76.353 30.5047 75.4218 26.1252 73.6126C21.7456 71.8034 17.7663 69.1517 14.4143 65.8088C11.0623 62.4659 8.40342 58.4973 6.58935 54.1296C5.75309 52.1161 5.10392 50.036 4.64705 47.9155L7.18147 46.4562C6.29858 44.555 5.80589 42.4369 5.80589 40.204C5.80589 38.0631 6.25882 36.0277 7.07433 34.1879L4.64752 32.7905C5.10438 30.67 5.75356 28.5898 6.58984 26.5764C8.40391 22.2086 11.0628 18.24 14.4148 14.8971C17.7668 11.5542 21.7461 8.90247 26.1257 7.0933C30.5052 5.28413 35.1992 4.35296 39.9396 4.35296C44.68 4.35296 49.374 5.28413 53.7535 7.0933C58.1331 8.90247 62.1124 11.5542 65.4644 14.8971C66.7133 16.1426 67.866 17.475 68.9146 18.8826C70.3162 18.9135 71.6837 19.0819 73.0042 19.3749ZM35.6741 40.353L39.9391 40.353L47.5431 40.353L39.9396 40.353L35.6741 40.353Z"/>
</mask>
<path fill-rule="evenodd" clip-rule="evenodd" d="M73.0042 19.3749C73.971 15.8589 77.1984 13.2753 81.0308 13.2753C85.6271 13.2753 89.353 16.9912 89.353 21.575C89.353 24.3339 88.0033 26.7783 85.9265 28.2875C88.0927 31.5726 89.353 35.5047 89.353 39.7304C89.353 43.8371 88.1627 47.6666 86.1073 50.8944C88.0813 52.412 89.353 54.7937 89.353 57.4716C89.353 62.0555 85.6271 65.7714 81.0308 65.7714C77.3407 65.7714 74.2116 63.3762 73.1212 60.0596C72.0525 60.3032 70.9525 60.4651 69.8284 60.5384C68.5475 62.4248 67.087 64.1901 65.4639 65.8088C62.1119 69.1517 58.1326 71.8035 53.753 73.6126C49.3735 75.4218 44.6795 76.353 39.9391 76.353C35.1987 76.353 30.5047 75.4218 26.1252 73.6126C21.7456 71.8034 17.7663 69.1517 14.4143 65.8088C11.0623 62.4659 8.40342 58.4973 6.58935 54.1296C5.75309 52.1161 5.10392 50.036 4.64705 47.9155L7.18147 46.4562C6.29858 44.555 5.80589 42.4369 5.80589 40.204C5.80589 38.0631 6.25882 36.0277 7.07433 34.1879L4.64752 32.7905C5.10438 30.67 5.75356 28.5898 6.58984 26.5764C8.40391 22.2086 11.0628 18.24 14.4148 14.8971C17.7668 11.5542 21.7461 8.90247 26.1257 7.0933C30.5052 5.28413 35.1992 4.35296 39.9396 4.35296C44.68 4.35296 49.374 5.28413 53.7535 7.0933C58.1331 8.90247 62.1124 11.5542 65.4644 14.8971C66.7133 16.1426 67.866 17.475 68.9146 18.8826C70.3162 18.9135 71.6837 19.0819 73.0042 19.3749ZM35.6741 40.353L39.9391 40.353L47.5431 40.353L39.9396 40.353L35.6741 40.353Z" fill="#9DA4AF"/>
<path d="M73.0042 19.3749L72.1378 23.2799L75.8523 24.104L76.8611 20.4354L73.0042 19.3749ZM85.9265 28.2875L83.5751 25.0516L80.483 27.2985L82.5871 30.4894L85.9265 28.2875ZM86.1073 50.8944L82.7333 48.7459L80.7668 51.8341L83.6693 54.0655L86.1073 50.8944ZM73.1212 60.0596L76.9211 58.8103L75.7835 55.3503L72.2323 56.1596L73.1212 60.0596ZM69.8284 60.5384L69.5681 56.5469L67.6173 56.6741L66.5191 58.2914L69.8284 60.5384ZM65.4639 65.8088L68.2885 68.6411L65.4639 65.8088ZM53.753 73.6126L52.2258 69.9156L52.2258 69.9156L53.753 73.6126ZM26.1252 73.6126L27.6524 69.9156L27.6524 69.9156L26.1252 73.6126ZM14.4143 65.8088L11.5897 68.641L14.4143 65.8088ZM6.58935 54.1296L2.89529 55.6638L6.58935 54.1296ZM4.64705 47.9155L2.65111 44.4491L0.12216 45.9052L0.736776 48.7579L4.64705 47.9155ZM7.18147 46.4562L9.17741 49.9226L12.3525 48.0944L10.8094 44.7714L7.18147 46.4562ZM7.07433 34.1879L10.7312 35.8088L12.19 32.5177L9.07028 30.7214L7.07433 34.1879ZM4.64752 32.7905L0.737242 31.9481L0.122634 34.8008L2.65157 36.257L4.64752 32.7905ZM6.58984 26.5764L10.2839 28.1106L10.2839 28.1106L6.58984 26.5764ZM14.4148 14.8971L17.2394 17.7294L17.2394 17.7294L14.4148 14.8971ZM26.1257 7.0933L24.5985 3.39632L24.5985 3.39632L26.1257 7.0933ZM53.7535 7.0933L52.2263 10.7903L53.7535 7.0933ZM65.4644 14.8971L68.289 12.0649L68.289 12.0649L65.4644 14.8971ZM68.9146 18.8826L65.707 21.2723L66.8738 22.8385L68.8264 22.8816L68.9146 18.8826ZM39.9391 40.353L39.9391 44.353L39.9391 44.353L39.9391 40.353ZM81.0308 9.27533C75.3581 9.27533 70.581 13.1005 69.1474 18.3144L76.8611 20.4354C77.361 18.6172 79.0387 17.2753 81.0308 17.2753L81.0308 9.27533ZM93.353 21.575C93.353 14.7719 87.826 9.27533 81.0308 9.27533L81.0308 17.2753C83.4281 17.2753 85.353 19.2106 85.353 21.575L93.353 21.575ZM88.2779 31.5234C91.3436 29.2956 93.353 25.671 93.353 21.575L85.353 21.575C85.353 22.9968 84.663 24.2611 83.5751 25.0516L88.2779 31.5234ZM93.353 39.7304C93.353 34.6975 91.8494 30.0035 89.2659 26.0855L82.5871 30.4894C84.336 33.1417 85.353 36.3119 85.353 39.7304L93.353 39.7304ZM89.4813 53.0429C91.933 49.1927 93.353 44.6212 93.353 39.7304L85.353 39.7304C85.353 43.0531 84.3923 46.1406 82.7333 48.7459L89.4813 53.0429ZM93.353 57.4716C93.353 53.4964 91.4597 49.9638 88.5453 47.7232L83.6693 54.0655C84.7029 54.8602 85.353 56.091 85.353 57.4716L93.353 57.4716ZM81.0308 69.7714C87.826 69.7714 93.353 64.2748 93.353 57.4716L85.353 57.4716C85.353 59.8361 83.4281 61.7714 81.0308 61.7714L81.0308 69.7714ZM69.3213 61.3089C70.9371 66.2237 75.568 69.7714 81.0308 69.7714L81.0308 61.7714C79.1135 61.7714 77.486 60.5287 76.9211 58.8103L69.3213 61.3089ZM70.0886 64.5299C71.4257 64.4428 72.7358 64.25 74.01 63.9596L72.2323 56.1596C71.3692 56.3564 70.4794 56.4875 69.5681 56.5469L70.0886 64.5299ZM68.2885 68.6411C70.0916 66.8428 71.7144 64.8814 73.1376 62.7854L66.5191 58.2914C65.3806 59.9682 64.0823 61.5375 62.6393 62.9766L68.2885 68.6411ZM55.2802 77.3096C60.1443 75.3003 64.5646 72.3549 68.2885 68.6411L62.6393 62.9765C59.6593 65.9485 56.1209 68.3066 52.2258 69.9156L55.2802 77.3096ZM39.9391 80.353C45.2033 80.353 50.4162 79.3189 55.2802 77.3096L52.2258 69.9156C48.3308 71.5247 44.1557 72.353 39.9391 72.353L39.9391 80.353ZM24.598 77.3096C29.462 79.3189 34.6749 80.353 39.9391 80.353L39.9391 72.353C35.7225 72.353 31.5474 71.5247 27.6524 69.9156L24.598 77.3096ZM11.5897 68.641C15.3136 72.3549 19.7339 75.3003 24.598 77.3096L27.6524 69.9156C23.7574 68.3066 20.2189 65.9485 17.2389 62.9765L11.5897 68.641ZM2.89529 55.6638C4.91125 60.5176 7.86579 64.9272 11.5897 68.641L17.2389 62.9766C14.2589 60.0046 11.8956 56.4769 10.2834 52.5953L2.89529 55.6638ZM0.736776 48.7579C1.24452 51.1147 1.96598 53.4263 2.89529 55.6638L10.2834 52.5953C9.5402 50.8059 8.96332 48.9574 8.55733 47.073L0.736776 48.7579ZM5.18553 42.9898L2.65111 44.4491L6.643 51.3819L9.17741 49.9226L5.18553 42.9898ZM1.80589 40.204C1.80589 43.0309 2.43071 45.723 3.55359 48.141L10.8094 44.7714C10.1665 43.387 9.80589 41.8429 9.80589 40.204L1.80589 40.204ZM3.41749 32.5669C2.38016 34.9071 1.80589 37.4939 1.80589 40.204L9.80589 40.204C9.80589 38.6323 10.1375 37.1482 10.7312 35.8088L3.41749 32.5669ZM2.65157 36.257L5.07838 37.6543L9.07028 30.7214L6.64347 29.3241L2.65157 36.257ZM2.89579 25.0421C1.96645 27.2796 1.24499 29.5913 0.737242 31.9481L8.5578 33.633C8.96378 31.7486 9.54067 29.9 10.2839 28.1106L2.89579 25.0421ZM11.5902 12.0649C7.86628 15.7787 4.91174 20.1883 2.89578 25.0421L10.2839 28.1106C11.8961 24.229 14.2594 20.7013 17.2394 17.7294L11.5902 12.0649ZM24.5985 3.39632C19.7344 5.40564 15.3141 8.35104 11.5902 12.0649L17.2394 17.7294C20.2194 14.7574 23.7578 12.3993 27.6529 10.7903L24.5985 3.39632ZM39.9396 0.352964C34.6754 0.352964 29.4625 1.38701 24.5985 3.39632L27.6529 10.7903C31.5479 9.18126 35.723 8.35296 39.9396 8.35296L39.9396 0.352964ZM55.2807 3.39632C50.4167 1.38701 45.2038 0.352964 39.9396 0.352964L39.9396 8.35296C44.1562 8.35296 48.3313 9.18126 52.2263 10.7903L55.2807 3.39632ZM68.289 12.0649C64.5651 8.35104 60.1448 5.40564 55.2807 3.39632L52.2263 10.7903C56.1213 12.3993 59.6598 14.7574 62.6398 17.7294L68.289 12.0649ZM72.1223 16.4928C70.9572 14.9289 69.6765 13.4486 68.289 12.0649L62.6398 17.7294C63.7501 18.8367 64.7748 20.0212 65.707 21.2723L72.1223 16.4928ZM73.8706 15.4698C72.296 15.1205 70.6678 14.9202 69.0028 14.8835L68.8264 22.8816C69.9645 22.9067 71.0714 23.0433 72.1378 23.2799L73.8706 15.4698ZM39.9391 36.353L35.6741 36.353L35.6741 44.353L39.9391 44.353L39.9391 36.353ZM47.5431 36.353L39.9391 36.353L39.9391 44.353L47.5431 44.353L47.5431 36.353ZM39.9396 44.353L47.5431 44.353L47.5431 36.353L39.9396 36.353L39.9396 44.353ZM35.6741 44.353L39.9396 44.353L39.9396 36.353L35.6741 36.353L35.6741 44.353Z" fill="white" mask="url(#path-1-outside-1_3298_11993)"/>
<ellipse cx="20.7403" cy="40.2039" rx="14.8941" ry="14.9345" transform="rotate(90 20.7403 40.2039)" fill="#505862"/>
<path d="M81.0308 65.1327C76.7857 65.1327 73.3473 61.7011 73.3473 57.4716C73.3473 53.2422 76.7857 49.8106 81.0308 49.8106C85.2759 49.8106 88.7143 53.2422 88.7143 57.4716C88.7143 61.7011 85.2759 65.1327 81.0308 65.1327Z" fill="white" stroke="#505862" stroke-width="1.27739"/>
<path d="M81.7969 58.2227C82.6882 57.3338 84.127 57.3139 85.0426 58.1778L88.1038 61.0658C88.1038 61.0658 87.2306 62.2873 86.573 62.9852C85.9497 63.6468 84.8493 64.5498 84.8493 64.5498L81.7969 61.5058C80.8878 60.5992 80.8878 59.1293 81.7969 58.2227V58.2227Z" fill="#505862"/>
<path d="M81.0308 13.9141C76.7857 13.9141 73.3473 17.3457 73.3473 21.5751C73.3473 25.8045 76.7857 29.2361 81.0308 29.2361C85.2759 29.2361 88.7143 25.8045 88.7143 21.5751C88.7143 17.3457 85.2759 13.9141 81.0308 13.9141Z" fill="white" stroke="#505862" stroke-width="1.27739"/>
<path d="M81.7969 20.8235C82.6882 21.7123 84.127 21.7322 85.0426 20.8684L88.1038 17.9803C88.1038 17.9803 87.2306 16.7589 86.573 16.0609C85.9497 15.3994 84.8493 14.4963 84.8493 14.4963L81.7969 17.5403C80.8878 18.4469 80.8878 19.9168 81.7969 20.8235V20.8235Z" fill="#505862"/>
<ellipse cx="68.4435" cy="39.7304" rx="20.853" ry="20.9095" transform="rotate(90 68.4435 39.7304)" fill="#505862"/>
<path fill-rule="evenodd" clip-rule="evenodd" d="M73.2894 26.5764C75.1034 30.9441 76.0371 35.6254 76.0371 40.353L39.9396 40.353L17.7803 40.353L17.7809 40.3526L4.64752 32.7905C5.10438 30.67 5.75356 28.5898 6.58984 26.5764C8.40391 22.2086 11.0628 18.24 14.4148 14.8971C17.7668 11.5542 21.7461 8.90247 26.1257 7.0933C30.5052 5.28413 35.1992 4.35296 39.9396 4.35296C44.68 4.35296 49.374 5.28413 53.7535 7.0933C58.1331 8.90247 62.1124 11.5542 65.4644 14.8971C68.8164 18.24 71.4753 22.2086 73.2894 26.5764Z" fill="#67717E"/>
<path fill-rule="evenodd" clip-rule="evenodd" d="M17.7813 40.353L4.6471 47.9155C5.10397 50.0361 5.75314 52.1161 6.58939 54.1296C8.40346 58.4973 11.0624 62.4659 14.4144 65.8088C17.7663 69.1517 21.7457 71.8035 26.1252 73.6126C30.5048 75.4218 35.1988 76.353 39.9391 76.353C44.6795 76.353 49.3735 75.4218 53.7531 73.6126C58.1326 71.8035 62.112 69.1517 65.4639 65.8088C68.8159 62.4659 71.4748 58.4973 73.2889 54.1296C75.103 49.7619 76.0367 45.0806 76.0367 40.353L39.9391 40.353L17.7813 40.353Z" fill="#818A98"/>
<path d="M63.085 40.3294C63.0851 40.3705 63.0852 40.4115 63.0852 40.4526C63.0852 50.5823 58.7584 59.6743 51.8988 65.8865C60.8086 61.0523 66.8804 51.4415 66.8804 40.3747C66.8804 40.3596 66.8804 40.3445 66.8804 40.3294L63.085 40.3294Z" fill="#D5D8DD"/>
<path d="M47.9662 40.3294C47.9663 40.361 47.9663 40.3926 47.9663 40.4242C47.9663 48.2162 44.6074 55.2101 39.2822 59.9887C46.199 56.2701 50.9126 48.8772 50.9126 40.3642C50.9126 40.3526 50.9126 40.341 50.9126 40.3294L47.9662 40.3294Z" fill="#D5D8DD"/>
<path d="M32.1132 40.1325C32.1132 40.1527 32.1133 40.1729 32.1133 40.1932C32.1133 45.1801 30.0068 49.6562 26.6673 52.7145C31.0049 50.3346 33.9609 45.6031 33.9609 40.1548C33.9609 40.1474 33.9609 40.1399 33.9609 40.1325L32.1132 40.1325Z" fill="#D5D8DD"/>
<path d="M63.085 40.3294C63.0851 40.2899 63.0852 40.2504 63.0852 40.2109C63.0852 30.4709 58.7584 21.7285 51.8988 15.7552C60.8086 20.4035 66.8804 29.6447 66.8804 40.2859C66.8804 40.3004 66.8804 40.3149 66.8804 40.3294L63.085 40.3294Z" fill="#9DA4AF"/>
<path d="M47.9662 40.3294C47.9663 40.2985 47.9663 40.2675 47.9663 40.2365C47.9663 32.6003 44.6074 25.7463 39.2822 21.0633C46.199 24.7075 50.9126 31.9526 50.9126 40.2953C50.9126 40.3067 50.9126 40.318 50.9126 40.3294L47.9662 40.3294Z" fill="#9DA4AF"/>
<path d="M32.1132 40.1325C32.1132 40.1132 32.1133 40.094 32.1133 40.0747C32.1133 35.3215 30.0068 31.0553 26.6673 28.1403C31.0049 30.4087 33.9609 34.9183 33.9609 40.1113C33.9609 40.1183 33.9609 40.1254 33.9609 40.1325L32.1132 40.1325Z" fill="#9DA4AF"/>
<rect x="37.7056" y="57.2367" width="15.7275" height="15.7701" rx="7.86373" transform="rotate(90 37.7056 57.2367)" fill="#E06351"/>
<rect x="37.7056" y="7.49884" width="15.7275" height="15.7701" rx="7.86373" transform="rotate(90 37.7056 7.49884)" fill="#F1AE5B"/>
</svg>
