<svg width="33" height="31" viewBox="0 0 33 27" fill="none" xmlns="http://www.w3.org/2000/svg">
<path fill-rule="evenodd" clip-rule="evenodd" d="M12.5745 0.659584C12.8485 0.7732 13.0827 0.965518 13.2475 1.21222C13.4122 1.45893 13.5001 1.74894 13.5 2.04558V20.0456C13.4999 20.3422 13.4119 20.6322 13.2471 20.8788C13.0823 21.1254 12.848 21.3176 12.574 21.4311C12.2999 21.5446 11.9984 21.5743 11.7075 21.5165C11.4165 21.4586 11.1493 21.3158 10.9395 21.1061L5.379 15.5456H1.5C1.10218 15.5456 0.720644 15.3876 0.43934 15.1062C0.158035 14.8249 0 14.4434 0 14.0456V8.04559C0 7.64776 0.158035 7.26623 0.43934 6.98492C0.720644 6.70362 1.10218 6.54558 1.5 6.54558H5.379L10.9395 0.985084C11.1493 0.775185 11.4166 0.632221 11.7076 0.574281C11.9987 0.51634 12.3003 0.546027 12.5745 0.659584Z" fill="#1E1E1E"/>
<path d="M20.6834 0.43918C20.9647 0.157973 21.3462 0 21.7439 0C22.1417 0 22.5231 0.157973 22.8044 0.43918C24.1992 1.83066 25.3053 3.48396 26.0593 5.30414C26.8132 7.12432 27.2002 9.07552 27.1979 11.0457C27.1991 12.0476 27.0996 13.0446 26.9023 14.0219L24.0342 13.0364C24.1439 12.3801 24.199 11.7143 24.1979 11.0457C24.1979 7.73068 22.8569 4.73368 20.6834 2.56018C20.4022 2.27889 20.2443 1.89743 20.2443 1.49968C20.2443 1.10193 20.4022 0.720471 20.6834 0.43918Z" fill="#1E1E1E"/>
<path d="M21.1436 12.0432C21.1801 11.7126 21.1983 11.3796 21.1979 11.0457C21.1995 9.86352 20.9674 8.69271 20.5151 7.6005C20.0629 6.50828 19.3993 5.51618 18.5624 4.68118C18.4231 4.54172 18.2577 4.43108 18.0756 4.35559C17.8935 4.2801 17.6983 4.24125 17.5012 4.24125C17.3041 4.24125 17.1089 4.2801 16.9268 4.35559C16.7447 4.43108 16.5792 4.54172 16.4399 4.68118C16.3005 4.82049 16.1898 4.98592 16.1143 5.16802C16.0389 5.35012 16 5.54531 16 5.74243C16 5.93955 16.0389 6.13474 16.1143 6.31684C16.1898 6.49894 16.3005 6.66437 16.4399 6.80368C16.9983 7.35986 17.441 8.02101 17.7427 8.74904C18.0426 9.47256 18.1972 10.2479 18.1979 11.031L21.1436 12.0432Z" fill="#1E1E1E"/>
<path d="M21.0399 14.1339C21.2697 14.2665 21.4373 14.4849 21.506 14.7411L21.765 15.7071C21.8337 15.9633 21.7978 16.2363 21.6652 16.466C21.5326 16.6958 21.3142 16.8634 21.058 16.9321C20.8018 17.0008 20.5288 16.9649 20.2991 16.8323C20.0693 16.6997 19.9017 16.4813 19.833 16.2251L19.574 15.2591C19.5053 15.0029 19.5412 14.7299 19.6738 14.5002C19.8064 14.2705 20.0248 14.1028 20.281 14.0341C20.5372 13.9654 20.8102 14.0013 21.0399 14.1339Z" fill="#1E1E1E"/>
<path d="M16.8726 17.5431C17.0033 17.5263 17.1359 17.5355 17.263 17.5701L18.229 17.8291C18.4841 17.8987 18.7013 18.0664 18.833 18.2957C18.9648 18.5249 19.0004 18.797 18.932 19.0524C18.8637 19.3078 18.6969 19.5258 18.4683 19.6586C18.2397 19.7914 17.9677 19.8283 17.712 19.7611L16.746 19.5021C16.6186 19.4687 16.4991 19.4104 16.3943 19.3306C16.2895 19.2508 16.2015 19.1511 16.1353 19.0372C16.0691 18.9233 16.0261 18.7975 16.0088 18.6669C15.9914 18.5364 15.9999 18.4037 16.034 18.2764C16.068 18.1492 16.1269 18.0299 16.2072 17.9255C16.2874 17.8211 16.3875 17.7335 16.5017 17.6679C16.6159 17.6023 16.742 17.5598 16.8726 17.5431Z" fill="#1E1E1E"/>
<path d="M26.2937 16.6766C26.2435 16.7979 26.1699 16.9082 26.077 17.0011L25.37 17.7091C25.2771 17.802 25.1668 17.8757 25.0454 17.926C24.924 17.9763 24.7939 18.0022 24.6625 18.0022C24.5311 18.0022 24.401 17.9763 24.2796 17.926C24.1582 17.8757 24.0479 17.802 23.955 17.7091C23.8621 17.6162 23.7884 17.5059 23.7381 17.3845C23.6878 17.2631 23.6619 17.133 23.6619 17.0016C23.6619 16.8702 23.6878 16.7401 23.7381 16.6187C23.7884 16.4973 23.8621 16.387 23.955 16.2941L24.662 15.5871C24.7549 15.4942 24.8651 15.4205 24.9864 15.3702C25.1077 15.3199 25.2378 15.294 25.3692 15.2939C25.5005 15.2939 25.6306 15.3197 25.7519 15.3699C25.8733 15.4201 25.9836 15.4938 26.0765 15.5866C26.1694 15.6795 26.2431 15.7897 26.2934 15.911C26.3437 16.0324 26.3697 16.1624 26.3697 16.2938C26.3698 16.4251 26.3439 16.5552 26.2937 16.6766Z" fill="#1E1E1E"/>
<path d="M19.713 23.3661L19.006 24.0731C18.8184 24.2608 18.5639 24.3652 18.2985 24.3652C18.0331 24.3652 17.7786 24.2598 17.591 24.0721C17.4034 23.8845 17.2979 23.63 17.2979 23.3646C17.2979 23.0993 17.4034 22.8448 17.591 22.6571L18.299 21.9501C18.4868 21.7626 18.7413 21.6574 19.0067 21.6576C19.2721 21.6578 19.5265 21.7633 19.714 21.9511C19.9015 22.1389 20.0067 22.3935 20.0066 22.6588C20.0064 22.9242 19.9008 23.1786 19.713 23.3661Z" fill="#1E1E1E"/>
<path d="M21.6334 18.8509C21.8252 18.8116 22.0243 18.8294 22.206 18.9021L32.206 22.9021C32.3848 22.9738 32.539 23.0956 32.6502 23.2529C32.7614 23.4101 32.8248 23.5961 32.8328 23.7886C32.8409 23.981 32.7932 24.1716 32.6954 24.3376C32.5977 24.5036 32.4542 24.6378 32.282 24.7241C32.282 24.7241 30.4743 25.3649 29.522 26.1031C28.9048 26.5816 28.587 26.9006 28.109 27.5181C27.3715 28.4707 26.729 30.2771 26.729 30.2771C26.6429 30.4496 26.5087 30.5935 26.3427 30.6915C26.1767 30.7895 25.9859 30.8375 25.7932 30.8295C25.6006 30.8216 25.4144 30.7582 25.257 30.6469C25.0996 30.5355 24.9777 30.3811 24.906 30.2021L20.906 20.2021C20.8333 20.0204 20.8155 19.8213 20.8548 19.6296C20.8941 19.4378 20.9889 19.2618 21.1273 19.1234C21.2657 18.985 21.4417 18.8902 21.6334 18.8509Z" fill="#1E1E1E"/>
</svg>
