<svg width="56" height="40" viewBox="0 0 56 40" fill="none" xmlns="http://www.w3.org/2000/svg">
<path d="M54.4998 3.31668C55.1773 2.83992 55.34 1.90422 54.8633 1.22673C54.3865 0.549236 53.4508 0.386505 52.7733 0.86326L37.2497 11.7873C37.189 11.6253 37.1256 11.4642 37.0593 11.3042C36.3053 9.48398 35.1992 7.83068 33.8044 6.4392C33.5232 6.15799 33.1417 6.00002 32.7439 6.00002C32.3462 6.00002 31.9647 6.15799 31.6834 6.4392C31.4022 6.72049 31.2443 7.10195 31.2443 7.4997C31.2443 7.89745 31.4022 8.27891 31.6834 8.5602C33.0683 9.94501 34.1151 11.6641 34.6925 13.5868L32.0557 15.4423C31.9421 14.8124 31.7613 14.1948 31.5152 13.6005C31.0629 12.5083 30.3993 11.5162 29.5624 10.6812C29.4231 10.5417 29.2577 10.4311 29.0756 10.3556C28.8935 10.2801 28.6983 10.2413 28.5012 10.2413C28.3041 10.2413 28.1089 10.2801 27.9268 10.3556C27.7447 10.4311 27.5793 10.5417 27.4399 10.6812C27.3005 10.8205 27.1898 10.9859 27.1144 11.168C27.0389 11.3501 27 11.5453 27 11.7425C27 11.9396 27.0389 12.1348 27.1144 12.3169C27.1898 12.499 27.3005 12.6644 27.4399 12.8037C27.9983 13.3599 28.441 14.021 28.7428 14.7491C29.0426 15.4726 29.1972 16.248 29.198 17.0311L29.6011 17.1696L24.5 20.7593V8.0456C24.5001 7.74896 24.4122 7.45894 24.2475 7.21224C24.0827 6.96554 23.8485 6.77322 23.5745 6.6596C23.3004 6.54605 22.9987 6.51636 22.7076 6.5743C22.4166 6.63224 22.1493 6.7752 21.9395 6.9851L16.379 12.5456H12.5C12.1022 12.5456 11.7207 12.7036 11.4394 12.9849C11.1581 13.2662 11 13.6478 11 14.0456V20.0456C11 20.4434 11.1581 20.825 11.4394 21.1063C11.7207 21.3876 12.1022 21.5456 12.5 21.5456H16.379L19.2718 24.4384L1.22673 37.1368C0.549234 37.6135 0.386506 38.5492 0.86326 39.2267C1.34001 39.9042 2.27571 40.067 2.95321 39.5902L21.425 26.5916L21.9395 27.1061C22.1493 27.3158 22.4165 27.4586 22.7075 27.5165C22.9984 27.5743 23.2999 27.5446 23.574 27.4311C23.848 27.3176 24.0823 27.1254 24.2471 26.8788C24.4119 26.6322 24.5 26.3422 24.5 26.0456V24.4276L35.1971 16.9001C35.1977 16.9485 35.1979 16.9971 35.1979 17.0457C35.199 17.7143 35.1439 18.3801 35.0342 19.0364L37.9023 20.022C38.0996 19.0446 38.1991 18.0476 38.1979 17.0457C38.1988 16.3247 38.1475 15.6063 38.0451 14.8959L54.4998 3.31668Z" fill="#1E1E1E"/>
<path d="M32.506 20.7411C32.4373 20.4849 32.2697 20.2665 32.0399 20.1339C31.8102 20.0013 31.5372 19.9655 31.281 20.0341C31.0248 20.1028 30.8064 20.2705 30.6738 20.5002C30.5412 20.7299 30.5053 21.0029 30.574 21.2591L30.833 22.2251C30.9017 22.4813 31.0694 22.6998 31.2991 22.8323C31.5288 22.9649 31.8018 23.0008 32.058 22.9321C32.3142 22.8635 32.5326 22.6958 32.6652 22.4661C32.7978 22.2363 32.8337 21.9633 32.765 21.7071L32.506 20.7411Z" fill="#1E1E1E"/>
<path d="M27.8726 23.5431C28.0033 23.5263 28.1359 23.5355 28.263 23.5701L29.229 23.8291C29.4841 23.8987 29.7013 24.0664 29.833 24.2957C29.9648 24.5249 30.0004 24.797 29.932 25.0524C29.8637 25.3079 29.697 25.5258 29.4683 25.6586C29.2397 25.7914 28.9678 25.8283 28.712 25.7611L27.746 25.5021C27.6186 25.4687 27.4991 25.4104 27.3943 25.3306C27.2895 25.2508 27.2015 25.1511 27.1353 25.0372C27.0692 24.9233 27.0262 24.7975 27.0088 24.6669C26.9914 24.5364 27 24.4037 27.034 24.2764C27.0681 24.1492 27.1269 24.0299 27.2072 23.9255C27.2874 23.8211 27.3876 23.7335 27.5018 23.6679C27.616 23.6023 27.742 23.5599 27.8726 23.5431Z" fill="#1E1E1E"/>
<path d="M37.077 23.0011C37.1699 22.9082 37.2435 22.7979 37.2937 22.6766C37.3439 22.5552 37.3698 22.4251 37.3697 22.2938C37.3697 22.1624 37.3438 22.0324 37.2935 21.9111C37.2431 21.7897 37.1694 21.6795 37.0765 21.5866C36.9836 21.4938 36.8733 21.4202 36.752 21.3699C36.6306 21.3197 36.5005 21.2939 36.3692 21.2939C36.2378 21.294 36.1078 21.3199 35.9864 21.3702C35.8651 21.4205 35.7549 21.4942 35.662 21.5871L34.955 22.2941C34.8621 22.3871 34.7884 22.4974 34.7381 22.6187C34.6878 22.7401 34.662 22.8702 34.662 23.0016C34.662 23.133 34.6878 23.2631 34.7381 23.3845C34.7884 23.5059 34.8621 23.6162 34.955 23.7091C35.0479 23.8021 35.1582 23.8758 35.2796 23.926C35.401 23.9763 35.5311 24.0022 35.6625 24.0022C35.7939 24.0022 35.924 23.9763 36.0454 23.926C36.1668 23.8758 36.2771 23.8021 36.37 23.7091L37.077 23.0011Z" fill="#1E1E1E"/>
<path d="M30.713 29.3661L30.006 30.0731C29.8184 30.2608 29.5639 30.3652 29.2985 30.3652C29.0332 30.3652 28.7787 30.2598 28.591 30.0721C28.4034 29.8845 28.298 29.63 28.298 29.3646C28.298 29.0993 28.4034 28.8448 28.591 28.6571L29.299 27.9501C29.4868 27.7626 29.7414 27.6574 30.0067 27.6576C30.2721 27.6578 30.5265 27.7634 30.714 27.9511C30.9015 28.1389 31.0068 28.3935 31.0066 28.6588C31.0064 28.9242 30.9008 29.1786 30.713 29.3661Z" fill="#1E1E1E"/>
<path d="M33.206 24.9021C33.0243 24.8294 32.8252 24.8116 32.6335 24.8509C32.4417 24.8903 32.2657 24.985 32.1273 25.1234C31.9889 25.2618 31.8941 25.4378 31.8548 25.6296C31.8155 25.8213 31.8333 26.0204 31.906 26.2021L35.906 36.2021C35.9777 36.3811 36.0996 36.5356 36.257 36.6469C36.4144 36.7582 36.6006 36.8216 36.7933 36.8296C36.9859 36.8375 37.1767 36.7896 37.3427 36.6915C37.5087 36.5935 37.6429 36.4496 37.729 36.2771C37.729 36.2771 38.3716 34.4708 39.109 33.5181C39.5871 32.9006 39.9048 32.5816 40.522 32.1031C41.4743 31.3649 43.282 30.7241 43.282 30.7241C43.4542 30.6378 43.5977 30.5036 43.6955 30.3376C43.7932 30.1717 43.8409 29.981 43.8329 29.7886C43.8248 29.5962 43.7614 29.4101 43.6502 29.2529C43.539 29.0956 43.3848 28.9738 43.206 28.9021L33.206 24.9021Z" fill="#1E1E1E"/>
</svg>
