<svg width="28" height="24" viewBox="0 2 28 24" fill="none" xmlns="http://www.w3.org/2000/svg">
<path fill-rule="evenodd" clip-rule="evenodd" d="M13.0745 1.61378C13.3485 1.7274 13.5827 1.91972 13.7475 2.16642C13.9122 2.41312 14.0001 2.70313 14 2.99978V20.9998C13.9999 21.2964 13.9119 21.5864 13.7471 21.833C13.5823 22.0796 13.348 22.2718 13.074 22.3853C12.7999 22.4988 12.4984 22.5285 12.2075 22.4707C11.9165 22.4128 11.6493 22.27 11.4395 22.0603L5.879 16.4998H2C1.60218 16.4998 1.22064 16.3417 0.93934 16.0604C0.658035 15.7791 0.5 15.3976 0.5 14.9998V8.99978C0.5 8.60196 0.658035 8.22043 0.93934 7.93912C1.22064 7.65782 1.60218 7.49978 2 7.49978H5.879L11.4395 1.93928C11.6493 1.72938 11.9166 1.58642 12.2076 1.52848C12.4987 1.47054 12.8003 1.50022 13.0745 1.61378V1.61378ZM20.9855 1.39328C21.2668 1.11207 21.6483 0.954102 22.046 0.954102C22.4437 0.954102 22.8252 1.11207 23.1065 1.39328C24.5012 2.78476 25.6074 4.43806 26.3613 6.25825C27.1153 8.07843 27.5023 10.0296 27.5 11.9998C27.5023 13.9699 27.1153 15.9211 26.3613 17.7413C25.6074 19.5615 24.5012 21.2148 23.1065 22.6063C22.8236 22.8795 22.4447 23.0307 22.0514 23.0273C21.6581 23.0239 21.2819 22.8661 21.0038 22.588C20.7257 22.3099 20.5679 21.9337 20.5645 21.5404C20.5611 21.1471 20.7123 20.7682 20.9855 20.4853C22.1017 19.3724 22.9869 18.0497 23.59 16.5935C24.1932 15.1372 24.5024 13.576 24.5 11.9998C24.5 8.68478 23.159 5.68778 20.9855 3.51428C20.7043 3.23299 20.5463 2.85153 20.5463 2.45378C20.5463 2.05603 20.7043 1.67457 20.9855 1.39328V1.39328ZM16.742 5.63528C16.8813 5.49582 17.0467 5.38518 17.2288 5.30969C17.4109 5.23421 17.6061 5.19535 17.8032 5.19535C18.0004 5.19535 18.1956 5.23421 18.3777 5.30969C18.5598 5.38518 18.7252 5.49582 18.8645 5.63528C19.7013 6.47028 20.3649 7.46238 20.8172 8.5546C21.2695 9.64681 21.5015 10.8176 21.5 11.9998C21.5015 13.1819 21.2694 14.3527 20.8171 15.4449C20.3648 16.5371 19.7013 17.5292 18.8645 18.3643C18.583 18.6457 18.2013 18.8039 17.8032 18.8039C17.4052 18.8039 17.0235 18.6457 16.742 18.3643C16.4605 18.0828 16.3024 17.7011 16.3024 17.303C16.3024 16.905 16.4605 16.5232 16.742 16.2418C17.3003 15.6856 17.743 15.0244 18.0447 14.2964C18.3464 13.5684 18.5011 12.7878 18.5 11.9998C18.5012 11.2117 18.3465 10.4312 18.0448 9.70314C17.7431 8.97511 17.3003 8.31397 16.742 7.75778C16.6025 7.61847 16.4919 7.45304 16.4164 7.27094C16.3409 7.08884 16.3021 6.89365 16.3021 6.69653C16.3021 6.49941 16.3409 6.30422 16.4164 6.12212C16.4919 5.94002 16.6025 5.77459 16.742 5.63528V5.63528Z" fill="#1E1E1E"/>
</svg>
