<svg width="56" height="40" viewBox="0 0 56 40" fill="none" xmlns="http://www.w3.org/2000/svg">
<path d="M54.4998 3.31668C55.1773 2.83992 55.34 1.90422 54.8633 1.22673C54.3865 0.549236 53.4508 0.386505 52.7733 0.86326L38.2459 11.0862C37.6401 10.1116 36.9227 9.20762 36.1065 8.3933C35.8252 8.11209 35.4438 7.95412 35.046 7.95412C34.6483 7.95412 34.2668 8.11209 33.9855 8.3933C33.7043 8.67459 33.5463 9.05605 33.5463 9.4538C33.5463 9.85155 33.7043 10.233 33.9855 10.5143C34.6753 11.2041 35.2813 11.9769 35.7872 12.8165L33.3252 14.549C32.9273 13.8498 32.4364 13.2059 31.8645 12.6353C31.7252 12.4958 31.5598 12.3852 31.3777 12.3097C31.1956 12.2342 31.0004 12.1954 30.8033 12.1954C30.6061 12.1954 30.411 12.2342 30.2289 12.3097C30.0468 12.3852 29.8813 12.4958 29.742 12.6353C29.6026 12.7746 29.4919 12.94 29.4164 13.1221C29.3409 13.3042 29.3021 13.4994 29.3021 13.6966C29.3021 13.8937 29.3409 14.0889 29.4164 14.271C29.4919 14.4531 29.6026 14.6185 29.742 14.7578C30.1922 15.2063 30.5673 15.723 30.8539 16.288L27 19V9.9998C27.0001 9.70315 26.9122 9.41314 26.7475 9.16644C26.5827 8.91973 26.3485 8.72742 26.0745 8.6138C25.8004 8.50024 25.4987 8.47056 25.2076 8.5285C24.9166 8.58644 24.6493 8.7294 24.4395 8.9393L18.879 14.4998H15C14.6022 14.4998 14.2207 14.6578 13.9394 14.9391C13.6581 15.2204 13.5 15.602 13.5 15.9998V21.9998C13.5 22.3976 13.6581 22.7792 13.9394 23.0605C14.2207 23.3418 14.6022 23.4998 15 23.4998H18.879L19.5922 24.213L1.22673 37.1368C0.549234 37.6135 0.386506 38.5492 0.86326 39.2267C1.34001 39.9042 2.27571 40.067 2.95321 39.5902L21.7453 26.3661L24.4395 29.0603C24.6493 29.27 24.9165 29.4128 25.2075 29.4707C25.4984 29.5285 25.7999 29.4988 26.074 29.3853C26.348 29.2718 26.5823 29.0796 26.7471 28.833C26.9119 28.5864 27 28.2964 27 27.9998V22.6684L31.4784 19.5169C31.4262 20.1278 31.2802 20.7281 31.0447 21.2964C30.743 22.0244 30.3003 22.6856 29.742 23.2418C29.4606 23.5233 29.3024 23.905 29.3024 24.3031C29.3024 24.7011 29.4606 25.0828 29.742 25.3643C30.0235 25.6458 30.4052 25.8039 30.8033 25.8039C31.2013 25.8039 31.5831 25.6458 31.8645 25.3643C32.7013 24.5293 33.3648 23.5371 33.8171 22.4449C34.2694 21.3527 34.5015 20.1819 34.5 18.9998C34.5007 18.4894 34.4578 17.9811 34.3725 17.4804L37.0177 15.6189C37.3317 16.691 37.5 17.8254 37.5 18.9998C37.5024 20.576 37.1932 22.1372 36.59 23.5935C35.9869 25.0497 35.1017 26.3724 33.9855 27.4853C33.7123 27.7682 33.5611 28.1471 33.5645 28.5404C33.5679 28.9337 33.7257 29.3099 34.0038 29.588C34.2819 29.8661 34.6581 30.0239 35.0514 30.0273C35.4447 30.0307 35.8236 29.8795 36.1065 29.6063C37.5013 28.2148 38.6074 26.5615 39.3614 24.7413C40.1153 22.9212 40.5023 20.97 40.5 18.9998C40.5021 17.2295 40.1898 15.4745 39.5795 13.8162L54.4998 3.31668Z" fill="#1E1E1E"/>
</svg>
