<svg
   width="96"
   height="76"
   viewBox="0 0 96 76"
   fill="none"
   version="1.1"
   xmlns="http://www.w3.org/2000/svg">
  <path
     d="m 19.573759,45.406189 c 0,1.695448 -0.282669,3.296799 -0.94201,4.898056 -0.659341,1.507159 -1.507065,2.920032 -2.73165,4.144617 -0.282575,0.282575 -0.56513,0.565149 -0.847715,0.753532 -0.565168,0.470958 -1.130336,0.847725 -1.789696,1.224491 -0.470967,0.282669 -0.941944,0.565243 -1.412911,0.753627 -0.282584,0.09419 -0.565168,0.188383 -0.847752,0.282574 -0.565169,0.188383 -1.1303369,0.376767 -1.7896967,0.470958 -0.7535514,0.09419 -1.4129112,0.188383 -2.166472,0.188383 V 45.406189 32.68995 c 0.7535608,0 1.4129206,0.09419 2.166472,0.188383 0.5651682,0.09419 1.2245277,0.282575 1.7896967,0.470958 0.282584,0.09419 0.565168,0.188383 0.847752,0.282575 0.470967,0.188383 0.941944,0.470958 1.412911,0.753533 0.65936,0.376766 1.224528,0.753626 1.789696,1.224584 0.282585,0.282575 0.56514,0.470958 0.847715,0.753533 1.130393,1.22449 2.072309,2.637458 2.73165,4.144523 0.659341,1.601351 0.94201,3.202607 0.94201,4.89815 z"
     fill="#ffffff"
     style="stroke-width:0.941916" />
  <path
     d="m 8.4591819,2.4534209 h 4.5213361 c 2.166472,0 9.042692,9.5136311 12.151108,13.3755791 0.470958,0.56515 4.050332,1.601351 6.216832,2.354884 0.941916,0.282574 1.78964,0.941915 2.260598,1.789734 L 37.847865,26.661407 13.357294,26.473024 7.611439,3.677949 C 7.4230464,3.0185873 7.8940231,2.4534209 8.4591819,2.4534209 Z"
     fill="#d5d8dd"
     style="stroke-width:0.941916" />
  <path
     d="m 94.741079,59.158629 c -0.470958,0.94201 -1.036107,1.695542 -1.695448,2.449075 -1.978117,2.1665 -22.041581,3.296799 -24.961614,3.296799 L 18.443554,65.092886 V 26.473213 h 32.779702 c 21.66472,1.507065 37.771949,15.071121 39.750066,16.860761 0.09419,0.09419 0.282575,0.282575 0.376766,0.376767 0.753533,0.942009 1.50716,1.789734 2.072309,2.637458 3.485182,5.274916 2.920033,9.702014 1.318682,12.81043 z"
     fill="#ffffff"
     style="stroke-width:0.941916" />
  <path
     d="M 11.00177,33.349197 V 57.557184 C 10.436611,57.745567 9.8714432,57.93395 9.2120834,58.028141 V 32.878239 c 0.6593598,0.09419 1.2245276,0.282575 1.7896866,0.470958 z"
     fill="#9da4af"
     style="stroke-width:0.941916" />
  <path
     d="M 15.61809,36.080941 V 54.91982 c -0.565178,0.470958 -1.130346,0.847724 -1.695515,1.22449 V 34.856356 c 0.565169,0.376767 1.130337,0.753533 1.695515,1.224585 z"
     fill="#9da4af"
     style="stroke-width:0.941916" />
  <path
     d="M 50.84649,64.904691 18.443554,65.658224 V 53.601326 c 0,0 49.546272,4.521384 72.153002,0.56515 0,0 2.260692,7.253033 2.449075,7.441416 0,0 -1.883926,3.95614 -41.916567,3.390991"
     fill="#b9bec6"
     style="stroke-width:0.941916" />
  <path
     d="m 12.226845,63.491347 33.062248,-0.09419 -4.332906,3.485182 c -0.376861,0.282575 -10.926599,1.224585 -11.303365,1.318776 l -9.136865,4.332907 c -0.470958,0.188383 -0.941916,0.376766 -1.507065,0.376766 -3.014225,0.282575 -13.375654,0.941916 -12.9988767,0.470958 z"
     fill="#d5d8dd"
     style="stroke-width:0.941916" />
  <path
     d="m 29.747861,46.348481 h -3.485182 c -0.847819,0 -1.50716,-0.659341 -1.50716,-1.507065 v -1.507159 c 0,-0.847724 0.659341,-1.507065 1.50716,-1.507065 h 3.485182 c 0.847724,0 1.507065,0.659341 1.507065,1.507065 v 1.507159 c 0,0.847724 -0.659341,1.507065 -1.507065,1.507065 z"
     fill="#67717e"
     style="stroke-width:0.941916" />
  <path
     d="m 41.521807,46.348481 h -3.485182 c -0.847819,0 -1.50716,-0.659341 -1.50716,-1.507065 v -1.507159 c 0,-0.847724 0.659341,-1.507065 1.50716,-1.507065 h 3.485182 c 0.847724,0 1.507065,0.659341 1.507065,1.507065 v 1.507159 c 0,0.847724 -0.659341,1.507065 -1.507065,1.507065 z"
     fill="#67717e"
     style="stroke-width:0.941916" />
  <path
     d="m 53.389568,46.347822 h -3.485183 c -0.847818,0 -1.507159,-0.659341 -1.507159,-1.507159 v -1.507065 c 0,-0.847819 0.659341,-1.50716 1.507159,-1.50716 h 3.485183 c 0.847724,0 1.507065,0.659341 1.507065,1.50716 v 1.507065 c 0,0.847818 -0.659341,1.507159 -1.507065,1.507159 z"
     fill="#67717e"
     style="stroke-width:0.941916" />
  <path
     d="m 94.741267,59.158629 c -0.470958,0.941915 -1.036107,1.695448 -1.695448,2.449075 -1.507159,-2.072309 -2.449075,-4.615576 -2.449075,-7.347225 0,-3.014225 1.036107,-5.745874 2.825841,-7.91228 3.485183,5.274822 2.920033,9.702014 1.318682,12.81043 z"
     fill="#d5d8dd"
     id="path2577"
     style="stroke-width:0.941916" />
  <path
     d="m 71.098053,37.870863 c 0.09429,-0.659435 0.753627,-0.847818 1.412968,-1.036201 1.695543,-0.376766 3.861949,-1.695448 11.868514,4.615575 4.709673,3.767757 -6.12264,3.767757 -8.383332,3.861949 -0.282574,0 -0.470957,-0.09419 -0.659341,-0.188384 -1.130298,-0.847724 -4.709766,-3.485182 -4.238809,-7.252939 z"
     fill="#67717e"
     id="path2579"
     style="stroke-width:0.941916" />
</svg>
