<svg
   width="100"
   height="76"
   viewBox="0 0 100 76"
   fill="none"
   version="1.1"
   xmlns="http://www.w3.org/2000/svg">
  <path
     d="m 19.573776,45.406027 c 0,1.695498 -0.282583,3.296801 -0.941943,4.898104 -0.65936,1.507109 -1.507109,2.920023 -2.731635,4.144549 -0.282582,0.282583 -0.565212,0.565166 -0.847795,0.753555 -0.565166,0.470971 -1.130332,0.847748 -1.789692,1.224526 -0.470972,0.282582 -0.941943,0.565165 -1.412915,0.753554 -0.282583,0.09419 -0.565166,0.188389 -0.847748,0.282583 -0.565166,0.188388 -1.1303321,0.376777 -1.7896922,0.470971 -0.7535544,0.09419 -1.4129145,0.188389 -2.166469,0.188389 V 45.406027 32.689796 c 0.7535545,0 1.4129146,0.09419 2.166469,0.188389 0.5651658,0.09419 1.2245262,0.282583 1.7896922,0.470971 0.282582,0.09419 0.565165,0.188389 0.847748,0.282583 0.470972,0.188389 0.941943,0.470972 1.412915,0.753555 0.65936,0.376777 1.224526,0.753554 1.789692,1.224526 0.282583,0.282582 0.565213,0.470971 0.847795,0.753554 1.130332,1.224526 2.072275,2.63744 2.731635,4.144549 0.65936,1.601303 0.941943,3.202607 0.941943,4.898104 z"
     fill="#1e1e1e"
     style="stroke-width:0.941943" />
  <path
     d="m 8.4592347,2.4534249 h 4.5213263 c 2.166469,0 9.042644,9.5136251 12.151056,13.3755911 0.470971,0.565166 4.050355,1.601303 6.216824,2.354858 0.941943,0.282582 1.789692,0.941943 2.260663,1.789691 L 37.847848,26.661361 13.357338,26.472972 7.611486,3.6779508 C 7.4230973,3.0185907 7.8940689,2.4534249 8.4592347,2.4534249 Z"
     fill="#1e1e1e"
     style="stroke-width:0.941943" />
  <path
     d="m 94.741301,59.158395 c -0.470972,0.941943 -1.036137,1.695498 -1.695497,2.449052 -1.978081,2.166469 -22.041467,3.296801 -24.961491,3.296801 L 18.443916,65.092636 V 26.472972 h 32.779617 c 21.66469,1.507109 37.771916,15.071089 39.749996,16.86078 0.09419,0.0942 0.282583,0.282583 0.376777,0.376778 0.753555,0.941943 1.507109,1.789691 2.072275,2.63744 3.485189,5.274881 2.920023,9.702013 1.31872,12.810425 z"
     fill="#1e1e1e"
     style="stroke-width:0.941943" />
  <path
     d="m 11.001869,33.349156 v 24.207936 c -0.565166,0.188483 -1.130332,0.376777 -1.7896922,0.470972 V 32.878185 c 0.6593602,0.09419 1.2245262,0.282583 1.7896922,0.470971 z"
     fill="#ffffff"
     style="stroke-width:0.941943" />
  <path
     d="m 15.617427,36.080791 v 18.838861 c -0.565203,0.470971 -1.130369,0.847748 -1.695535,1.224526 V 34.856265 c 0.565166,0.376777 1.130332,0.753555 1.695535,1.224526 z"
     fill="#ffffff"
     style="stroke-width:0.941943" />
  <path
     d="m 50.846756,64.904342 -32.40284,0.75346 V 53.600931 c 0,0 49.546203,4.521421 72.152836,0.56526 0,0 2.260663,7.252868 2.449052,7.441256 0,0 -1.883887,3.956255 -41.916465,3.391089"
     fill="#1e1e1e"
     style="stroke-width:0.941943" />
  <path
     d="m 12.226837,63.491333 33.062172,-0.09419 -4.332938,3.485189 c -0.376777,0.282583 -10.926539,1.224526 -11.303316,1.31872 l -9.136847,4.332938 c -0.470972,0.188389 -0.941943,0.376778 -1.507109,0.376778 -3.014218,0.282582 -13.3755611,0.941943 -12.9987835,0.470971 z"
     fill="#1e1e1e"
     style="stroke-width:0.941943" />
  <path
     d="m 29.746573,46.34797 h -3.48519 c -0.847748,0 -1.507108,-0.65936 -1.507108,-1.507109 v -1.507014 c 0,-0.847749 0.65936,-1.507203 1.507108,-1.507203 h 3.48519 c 0.847748,0 1.507108,0.659454 1.507108,1.507203 v 1.507014 c 0,0.847749 -0.65936,1.507109 -1.507108,1.507109 z"
     fill="#ffffff"
     style="stroke-width:0.941943" />
  <path
     d="m 41.52086,46.34797 h -3.485189 c -0.847748,0 -1.507109,-0.65936 -1.507109,-1.507109 v -1.507014 c 0,-0.847749 0.659361,-1.507203 1.507109,-1.507203 h 3.485189 c 0.847749,0 1.507109,0.659454 1.507109,1.507203 v 1.507014 c 0,0.847749 -0.65936,1.507109 -1.507109,1.507109 z"
     fill="#ffffff"
     style="stroke-width:0.941943" />
  <path
     d="m 53.389814,46.34797 h -3.48519 c -0.847748,0 -1.507108,-0.65936 -1.507108,-1.507109 v -1.507014 c 0,-0.847749 0.65936,-1.507203 1.507108,-1.507203 h 3.48519 c 0.847748,0 1.507108,0.659454 1.507108,1.507203 v 1.507014 c 0,0.847749 -0.65936,1.507109 -1.507108,1.507109 z"
     fill="#ffffff"
     style="stroke-width:0.941943" />
  <path
     d="m 94.740924,59.158395 c -0.470971,0.941943 -1.036137,1.695498 -1.695497,2.449052 -1.507109,-2.072274 -2.449052,-4.615521 -2.449052,-7.347155 0,-3.014218 1.036137,-5.745853 2.825829,-7.912322 3.485189,5.274881 2.920023,9.702013 1.31872,12.810425 z"
     fill="#1e1e1e"
     style="stroke-width:0.941943" />
  <path
     d="m 71.098154,37.870389 c 0.09419,-0.65936 0.753555,-0.847655 1.412915,-1.036044 1.695497,-0.376777 3.861966,-1.695497 11.868482,4.615521 4.709715,3.767772 -6.12263,3.767772 -8.383293,3.861967 -0.282583,0 -0.470972,-0.09419 -0.65936,-0.188389 -1.130332,-0.847749 -4.709715,-3.485283 -4.238744,-7.253055 z"
     fill="#ffffff"
     style="stroke-width:0.941943" />
</svg>
